<svg width="53" height="53" viewBox="0 0 53 53" fill="none" xmlns="http://www.w3.org/2000/svg">
<path d="M40.5269 15.7782L42.6482 13.6569L43.3553 12.9497L43.7089 10.4749L41.5876 11.182L36.9914 12.2426L11.5355 37.6985L9.41422 39.8198L8.70711 41.9411L11.182 41.5876L15.0711 41.234L40.5269 15.7782Z" fill="black" stroke="black"/>
<path d="M15.7782 12.2426L13.6569 10.1213L12.9497 9.41422L10.4749 9.06066L11.182 11.182L12.2426 15.7782L37.6985 41.234L39.8198 43.3553L41.9411 44.0624L41.5876 41.5876L41.234 37.6985L15.7782 12.2426Z" fill="black" stroke="black"/>
<path d="M28.8848 8.88478V5.88478V4.88478L27.3848 2.88478L26.3848 4.88478L23.8848 8.88478V44.8848V47.8848L24.8848 49.8848L26.3848 47.8848L28.8848 44.8848V8.88478Z" fill="black" stroke="black"/>
<path d="M8.88478 23.8848H5.88478H4.88478L2.88478 25.3848L4.88478 26.3848L8.88478 28.8848H44.8848H47.8848L49.8848 27.8848L47.8848 26.3848L44.8848 23.8848H8.88478Z" fill="black" stroke="black"/>
</svg>
